<?xml version="1.0" encoding="UTF-8" standalone="no"?>
<!-- Created with Inkscape (http://www.inkscape.org/) -->

<svg
   width="26.285473mm"
   height="36.063782mm"
   viewBox="0 0 26.285473 36.06378"
   version="1.1"
   id="svg1107"
   inkscape:version="1.4.2 (ebf0e940d0, 2025-05-08)"
   sodipodi:docname="divaIcon.svg"
   xmlns:inkscape="http://www.inkscape.org/namespaces/inkscape"
   xmlns:sodipodi="http://sodipodi.sourceforge.net/DTD/sodipodi-0.dtd"
   xmlns="http://www.w3.org/2000/svg"
   xmlns:svg="http://www.w3.org/2000/svg"
   xmlns:rdf="http://www.w3.org/1999/02/22-rdf-syntax-ns#"
   xmlns:cc="http://creativecommons.org/ns#"
   xmlns:dc="http://purl.org/dc/elements/1.1/">
  <defs
     id="defs1101" />
  <sodipodi:namedview
     id="base"
     pagecolor="#ffffff"
     bordercolor="#666666"
     borderopacity="1.0"
     inkscape:pageopacity="0.0"
     inkscape:pageshadow="2"
     inkscape:zoom="5.6"
     inkscape:cx="41.517857"
     inkscape:cy="71.517857"
     inkscape:document-units="mm"
     inkscape:current-layer="layer1"
     showgrid="false"
     inkscape:window-width="1920"
     inkscape:window-height="1172"
     inkscape:window-x="0"
     inkscape:window-y="0"
     inkscape:window-maximized="1"
     fit-margin-top="0"
     fit-margin-left="0"
     fit-margin-right="0"
     fit-margin-bottom="0"
     inkscape:showpageshadow="2"
     inkscape:pagecheckerboard="0"
     inkscape:deskcolor="#d1d1d1" />
  <metadata
     id="metadata1104">
    <rdf:RDF>
      <cc:Work
         rdf:about="">
        <dc:format>image/svg+xml</dc:format>
        <dc:type
           rdf:resource="http://purl.org/dc/dcmitype/StillImage" />
      </cc:Work>
    </rdf:RDF>
  </metadata>
  <g
     inkscape:label="Layer 1"
     inkscape:groupmode="layer"
     id="layer1"
     transform="translate(-95.683817,-135.88141)">
    <g
       id="icon-diva_star"
       transform="matrix(1.173773,0,0,1.173773,94.154391,135.76521)"
       style="fill:#75598e;fill-opacity:1">
      <path
         class="path1"
         d="M 1.913,19.276 C 1.704,18.896 1.508,18.541 1.307,18.176 1.777,17.806 2.241,17.452 2.692,17.082 4.227,15.824 5.595,14.411 6.707,12.758 6.84,12.559 6.829,12.427 6.7,12.235 5.384,10.279 3.702,8.682 1.847,7.251 1.674,7.118 1.5,6.986 1.303,6.835 1.506,6.465 1.704,6.104 1.903,5.743 2.729,6.044 3.533,6.357 4.35,6.632 5.998,7.187 7.686,7.552 9.424,7.682 9.658,7.7 9.767,7.63 9.869,7.412 10.88,5.245 11.445,2.954 11.794,0.601 11.818,0.437 11.843,0.274 11.87,0.099 c 0.415,0 0.82,0 1.26,0 0.053,0.385 0.115,0.773 0.158,1.162 0.245,2.206 1.005,4.254 1.901,6.263 0.083,0.186 0.214,0.165 0.356,0.156 1.307,-0.08 2.594,-0.306 3.846,-0.679 1.257,-0.374 2.497,-0.807 3.781,-1.227 0.157,0.316 0.337,0.676 0.519,1.041 -0.618,0.51 -1.239,1.003 -1.838,1.521 -1.341,1.158 -2.547,2.442 -3.557,3.904 -0.134,0.194 -0.133,0.324 0,0.519 1.351,1.984 3.079,3.596 4.957,5.061 0.147,0.115 0.293,0.23 0.444,0.349 -0.183,0.372 -0.358,0.726 -0.543,1.1 -0.601,-0.227 -1.189,-0.461 -1.785,-0.671 -1.868,-0.657 -3.778,-1.123 -5.759,-1.28 -0.262,-0.021 -0.387,0.064 -0.494,0.294 -0.973,2.089 -1.558,4.289 -1.88,6.564 -0.033,0.235 -0.066,0.472 -0.101,0.722 -0.43,0 -0.843,0 -1.167,0 C 11.595,23.307 11.271,21.734 10.847,20.19 10.599,19.29 10.184,18.437 9.855,17.559 9.779,17.355 9.665,17.304 9.454,17.323 7.342,17.519 5.3,18.015 3.31,18.739 2.851,18.906 2.397,19.089 1.915,19.275 Z m 14.968,-6.76 C 16.88,10.078 14.936,8.151 12.514,8.115 10.03,8.078 8.103,10.218 8.102,12.514 c -10e-4,2.298 1.915,4.402 4.395,4.373 2.449,-0.029 4.385,-1.934 4.384,-4.371 z"
         id="path167"
         style="fill:#75598e;fill-opacity:1" />
    </g>
    <text
       xml:space="preserve"
       style="font-style:normal;font-weight:normal;font-size:10.5833px;line-height:1.25;font-family:sans-serif;letter-spacing:0px;word-spacing:0px;fill:#1a1a1a;fill-opacity:1;stroke:none;stroke-width:0.264583"
       x="99.794456"
       y="169.99707"
       id="text1119"
       transform="rotate(0.87364207)"><tspan
         sodipodi:role="line"
         id="tspan1117"
         x="99.794456"
         y="169.99707"
         style="fill:#1a1a1a;fill-opacity:1;stroke-width:0.264583">Cora</tspan></text>
  </g>
</svg>
