<?xml version="1.0" encoding="UTF-8" standalone="no"?>
<svg
   xmlns:dc="http://purl.org/dc/elements/1.1/"
   xmlns:cc="http://creativecommons.org/ns#"
   xmlns:rdf="http://www.w3.org/1999/02/22-rdf-syntax-ns#"
   xmlns:svg="http://www.w3.org/2000/svg"
   xmlns="http://www.w3.org/2000/svg"
   xmlns:sodipodi="http://sodipodi.sourceforge.net/DTD/sodipodi-0.dtd"
   xmlns:inkscape="http://www.inkscape.org/namespaces/inkscape"
   version="1.1"
   width="700"
   height="70"
   viewBox="0 0 700 70"
   id="svg184"
   sodipodi:docname="divaIcon2.svg"
   inkscape:version="1.0.1 (3bc2e813f5, 2020-09-07)">
  <metadata
     id="metadata190">
    <rdf:RDF>
      <cc:Work
         rdf:about="">
        <dc:format>image/svg+xml</dc:format>
        <dc:type
           rdf:resource="http://purl.org/dc/dcmitype/StillImage" />
        <dc:title />
      </cc:Work>
    </rdf:RDF>
  </metadata>
  <defs
     id="defs188" />
  <sodipodi:namedview
     pagecolor="#ffffff"
     bordercolor="#666666"
     borderopacity="1"
     objecttolerance="10"
     gridtolerance="10"
     guidetolerance="10"
     inkscape:pageopacity="0"
     inkscape:pageshadow="2"
     inkscape:window-width="1920"
     inkscape:window-height="1130"
     id="namedview186"
     showgrid="false"
     inkscape:zoom="6.1548822"
     inkscape:cx="99.5688"
     inkscape:cy="26.260985"
     inkscape:window-x="1920"
     inkscape:window-y="0"
     inkscape:window-maximized="1"
     inkscape:current-layer="svg184"
     inkscape:document-rotation="0" />
  <g
     id="icon-diva_star"
     transform="translate(60.927245,0.48741799)">
    <path
       class="path1"
       d="M 1.913,19.276 C 1.704,18.896 1.508,18.541 1.307,18.176 1.777,17.806 2.241,17.452 2.692,17.082 4.227,15.824 5.595,14.411 6.707,12.758 6.84,12.559 6.829,12.427 6.7,12.235 5.384,10.279 3.702,8.682 1.847,7.251 1.674,7.118 1.5,6.986 1.303,6.835 1.506,6.465 1.704,6.104 1.903,5.743 2.729,6.044 3.533,6.357 4.35,6.632 5.998,7.187 7.686,7.552 9.424,7.682 9.658,7.7 9.767,7.63 9.869,7.412 10.88,5.245 11.445,2.954 11.794,0.601 11.818,0.437 11.843,0.274 11.87,0.099 c 0.415,0 0.82,0 1.26,0 0.053,0.385 0.115,0.773 0.158,1.162 0.245,2.206 1.005,4.254 1.901,6.263 0.083,0.186 0.214,0.165 0.356,0.156 1.307,-0.08 2.594,-0.306 3.846,-0.679 1.257,-0.374 2.497,-0.807 3.781,-1.227 0.157,0.316 0.337,0.676 0.519,1.041 -0.618,0.51 -1.239,1.003 -1.838,1.521 -1.341,1.158 -2.547,2.442 -3.557,3.904 -0.134,0.194 -0.133,0.324 0,0.519 1.351,1.984 3.079,3.596 4.957,5.061 0.147,0.115 0.293,0.23 0.444,0.349 -0.183,0.372 -0.358,0.726 -0.543,1.1 -0.601,-0.227 -1.189,-0.461 -1.785,-0.671 -1.868,-0.657 -3.778,-1.123 -5.759,-1.28 -0.262,-0.021 -0.387,0.064 -0.494,0.294 -0.973,2.089 -1.558,4.289 -1.88,6.564 -0.033,0.235 -0.066,0.472 -0.101,0.722 -0.43,0 -0.843,0 -1.167,0 C 11.595,23.307 11.271,21.734 10.847,20.19 10.599,19.29 10.184,18.437 9.855,17.559 9.779,17.355 9.665,17.304 9.454,17.323 7.342,17.519 5.3,18.015 3.31,18.739 2.851,18.906 2.397,19.089 1.915,19.275 Z m 14.968,-6.76 C 16.88,10.078 14.936,8.151 12.514,8.115 10.03,8.078 8.103,10.218 8.102,12.514 c -10e-4,2.298 1.915,4.402 4.395,4.373 2.449,-0.029 4.385,-1.934 4.384,-4.371 z"
       id="path167" />
  </g>
  <g
     id="icon-diva"
     transform="translate(1.2997809,1.1373085)">
    <path
       class="path1"
       d="M 0.189,1.079 0.162,0.57 C 2.57,0.57 4.599,0.467 6.245,0.27 6.857,0.188 7.49,0.149 8.148,0.149 c 1.338,0 2.617,0.201 3.843,0.598 1.224,0.404 2.31,0.979 3.265,1.734 0.95,0.756 1.699,1.679 2.247,2.761 0.542,1.083 0.814,2.298 0.814,3.646 0,1.634 -0.421,3.13 -1.26,4.476 -0.843,1.35 -2.045,2.414 -3.602,3.195 -1.562,0.779 -3.341,1.166 -5.337,1.166 -0.116,0 -0.471,-0.012 -1.063,-0.025 -0.594,-0.018 -0.942,-0.029 -1.041,-0.029 -0.349,0 -0.663,0.002 -0.937,0.008 C 4.803,17.683 4.402,17.687 3.88,17.7 3.35,17.706 2.849,17.718 2.367,17.733 1.884,17.745 1.556,17.749 1.375,17.749 L 0.052,17.726 v -0.514 c 0.965,0 1.54,-0.213 1.741,-0.633 C 2.019,16.089 2.131,13.85 2.131,9.875 2.131,7.233 2.099,5.267 2.036,3.966 1.973,2.672 1.846,1.866 1.659,1.55 1.425,1.21 0.937,1.051 0.189,1.079 Z M 15.971,8.917 C 15.971,7.209 15.568,5.741 14.756,4.512 13.947,3.286 12.914,2.357 11.652,1.727 10.397,1.1 9.105,0.782 7.782,0.782 6.49,0.782 5.316,1.018 4.275,1.486 4.186,1.989 4.118,3.49 4.074,5.993 4.027,8.49 4.006,10.644 4.006,12.452 c 0,0.068 0.009,0.41 0.021,1.014 0.012,0.602 0.026,1.209 0.039,1.824 0.013,0.617 0.021,0.969 0.021,1.063 0.909,0.289 1.605,0.484 2.09,0.6 0.485,0.111 1.098,0.168 1.834,0.168 1.865,0 3.386,-0.406 4.579,-1.211 1.191,-0.803 2.053,-1.83 2.584,-3.082 0.531,-1.247 0.797,-2.554 0.797,-3.911 z"
       id="path170" />
    <path
       class="path2"
       d="m 20.679,17.831 0.054,-0.42 c 0.765,-0.068 1.195,-0.207 1.295,-0.4 0.046,-0.078 0.083,-0.404 0.12,-0.965 0.039,-0.561 0.062,-1.232 0.088,-2.014 0.021,-0.771 0.032,-1.213 0.032,-1.313 0,-1.279 -0.018,-2.094 -0.059,-2.453 C 22.168,9.908 22.09,9.656 21.973,9.523 21.938,9.478 21.71,9.429 21.298,9.388 20.883,9.345 20.679,9.284 20.679,9.21 c 0,-0.143 0.079,-0.231 0.24,-0.267 1.072,-0.333 2.119,-0.923 3.143,-1.767 0.066,0 0.15,0.019 0.262,0.053 -0.094,0.368 -0.169,0.909 -0.23,1.621 -0.063,0.709 -0.118,1.453 -0.158,2.234 -0.041,0.787 -0.059,1.479 -0.059,2.082 0,0.447 0.016,1.092 0.046,1.936 0.031,0.84 0.088,1.408 0.171,1.705 0.069,0.162 0.159,0.264 0.266,0.313 0.11,0.043 0.327,0.08 0.65,0.105 0.313,0.008 0.626,0.037 0.943,0.082 l 0.161,0.393 z"
       id="path172" />
    <path
       class="path3"
       d="m 22.441,4.556 c 0,-0.31 0.104,-0.561 0.312,-0.758 0.205,-0.197 0.453,-0.294 0.742,-0.294 0.287,0 0.53,0.101 0.725,0.306 0.201,0.208 0.299,0.458 0.299,0.746 0,0.283 -0.098,0.533 -0.289,0.742 -0.196,0.206 -0.438,0.308 -0.734,0.308 -0.289,0 -0.537,-0.102 -0.742,-0.308 C 22.545,5.089 22.441,4.839 22.441,4.556 Z"
       id="path174" />
    <path
       class="path4"
       d="m 25.051,0.729 0.071,-0.485 1.09,0.026 2.211,0.081 c 0.208,-0.01 0.396,-0.014 0.568,-0.019 0.172,-0.006 0.425,-0.01 0.77,-0.01 l 1.349,0.028 0.026,0.43 c -0.795,0.059 -1.283,0.106 -1.464,0.165 -0.186,0.052 -0.275,0.165 -0.275,0.333 0,0.248 0.182,0.834 0.558,1.771 0.373,0.937 0.835,2.01 1.383,3.227 0.542,1.225 0.935,2.102 1.178,2.641 l 1.891,4.061 0.376,0.771 c 0.253,0.518 0.438,0.904 0.554,1.156 0.311,-0.541 0.672,-1.238 1.094,-2.094 0.421,-0.863 0.821,-1.695 1.189,-2.494 C 37.991,9.52 38.198,9.08 38.235,9 L 39.997,5.128 C 40.258,4.56 40.517,3.943 40.773,3.273 41.027,2.6 41.158,2.122 41.158,1.835 41.158,1.242 40.664,0.904 39.672,0.823 L 39.754,0.27 c 1.034,0.09 2.096,0.135 3.184,0.135 0.287,-0.01 0.546,-0.017 0.767,-0.021 0.228,-0.002 0.511,-0.01 0.853,-0.01 v 0.384 c -0.594,0.194 -1.039,0.407 -1.334,0.636 -0.299,0.229 -0.594,0.6 -0.893,1.101 -0.299,0.503 -0.803,1.484 -1.521,2.938 l -3.034,6.047 c -0.573,1.113 -1.144,2.336 -1.705,3.672 -0.562,1.33 -0.889,2.316 -0.977,2.965 l -0.42,0.053 C 34.465,17.578 34.237,17.014 33.988,16.484 L 33.066,14.459 C 32.789,13.74 32.408,12.887 31.932,11.896 L 29.666,7.108 C 27.992,3.631 26.986,1.704 26.654,1.336 26.451,1.101 26.229,0.946 25.995,0.872 25.76,0.793 25.446,0.746 25.051,0.729 Z"
       id="path176" />
    <path
       class="path5"
       d="m 51.583,17.831 v -0.443 c 0.415,-0.072 0.743,-0.168 0.988,-0.283 0.251,-0.117 0.375,-0.316 0.375,-0.594 0,-0.26 -0.08,-0.639 -0.241,-1.135 -0.163,-0.492 -0.285,-0.836 -0.364,-1.023 l -0.998,-2.711 c -0.522,-0.074 -1.375,-0.109 -2.551,-0.109 h -1.071 c -1.072,-0.031 -2.019,0.021 -2.831,0.164 l -0.986,2.494 c -0.438,1.043 -0.657,1.695 -0.657,1.953 0,0.318 0.144,0.584 0.429,0.793 0.278,0.213 0.86,0.379 1.729,0.506 v 0.447 c -1.046,-0.127 -1.944,-0.189 -2.686,-0.189 -0.751,0 -1.573,0.035 -2.45,0.107 v -0.396 c 0.536,-0.129 0.952,-0.344 1.239,-0.629 0.218,-0.191 0.498,-0.639 0.856,-1.344 0.354,-0.703 0.716,-1.473 1.078,-2.309 0.366,-0.83 0.632,-1.48 0.795,-1.945 l 2.157,-5.168 c 0.273,-0.618 0.546,-1.27 0.833,-1.948 0.285,-0.683 0.552,-1.361 0.801,-2.042 0.255,-0.688 0.437,-1.235 0.558,-1.651 0,-0.115 0.022,-0.196 0.08,-0.254 l 0.442,-0.026 c 0.278,0.999 0.59,1.956 0.918,2.872 l 2.831,7.599 c 0.728,1.895 1.277,3.295 1.649,4.201 0.375,0.9 0.699,1.545 0.979,1.936 0.235,0.328 0.709,0.531 1.442,0.605 v 0.471 c -0.735,-0.072 -1.448,-0.107 -2.136,-0.107 -0.536,0 -1.036,0.014 -1.502,0.041 -0.463,0.025 -0.827,0.051 -1.096,0.076 -0.275,0.018 -0.476,0.037 -0.61,0.041 z M 47.314,5.679 45.792,9.605 c -0.205,0.556 -0.347,0.907 -0.418,1.052 0.681,0.109 1.466,0.16 2.356,0.16 l 1.239,-0.023 c 0.749,0 1.416,-0.021 2.008,-0.057 C 50.664,9.818 50.461,9.273 50.37,9.107 L 49.402,6.62 C 49.295,6.352 49.087,5.864 48.792,5.152 48.491,4.442 48.272,3.959 48.135,3.694 47.964,4.073 47.824,4.418 47.698,4.729 47.577,5.037 47.449,5.354 47.314,5.679 Z"
       id="path178" />
  </g>
  <g
     id="menu-icon"
     transform="translate(2.1121452,23.558534)">
    <path
       d="M 0,0 H 24 V 24 H 0 Z"
       fill="none"
       id="path78" />
    <path
       d="m 4,18 h 16 c 0.55,0 1,-0.45 1,-1 0,-0.55 -0.45,-1 -1,-1 H 4 c -0.55,0 -1,0.45 -1,1 0,0.55 0.45,1 1,1 z m 0,-5 h 16 c 0.55,0 1,-0.45 1,-1 0,-0.55 -0.45,-1 -1,-1 H 4 c -0.55,0 -1,0.45 -1,1 0,0.55 0.45,1 1,1 z M 3,7 C 3,7.55 3.45,8 4,8 H 20 C 20.55,8 21,7.55 21,7 21,6.45 20.55,6 20,6 H 4 C 3.45,6 3,6.45 3,7 Z"
       id="path80" />
  </g>
  <g
     id="cloud-download-icon"
     transform="translate(58.815099,25.345733)">
    <path
       d="M 0,0 H 24 V 24 H 0 Z"
       fill="none"
       id="path151" />
    <path
       d="M 19.35,10.04 C 18.67,6.59 15.64,4 12,4 9.11,4 6.6,5.64 5.35,8.04 2.34,8.36 0,10.91 0,14 c 0,3.31 2.69,6 6,6 h 13 c 2.76,0 5,-2.24 5,-5 0,-2.64 -2.05,-4.78 -4.65,-4.96 z M 19,18 H 6 C 3.79,18 2,16.21 2,14 2,11.95 3.53,10.24 5.56,10.03 L 6.63,9.92 7.13,8.97 C 8.08,7.14 9.94,6 12,6 c 2.62,0 4.88,1.86 5.39,4.43 l 0.3,1.5 1.53,0.11 c 1.56,0.1 2.78,1.41 2.78,2.96 0,1.65 -1.35,3 -3,3 z m -5.55,-8 h -2.9 v 3 H 8 l 4,4 4,-4 h -2.55 z"
       id="path153" />
  </g>
  <g
     id="cloud-upload-icon"
     transform="translate(86.272976,25.508206)">
    <path
       d="M 0,0 H 24 V 24 H 0 Z"
       fill="none"
       id="path239" />
    <path
       d="M 19.35,10.04 C 18.67,6.59 15.64,4 12,4 9.11,4 6.6,5.64 5.35,8.04 2.34,8.36 0,10.91 0,14 c 0,3.31 2.69,6 6,6 h 13 c 2.76,0 5,-2.24 5,-5 0,-2.64 -2.05,-4.78 -4.65,-4.96 z M 19,18 H 6 C 3.79,18 2,16.21 2,14 2,11.95 3.53,10.24 5.56,10.03 L 6.63,9.92 7.13,8.97 C 8.08,7.14 9.94,6 12,6 c 2.62,0 4.88,1.86 5.39,4.43 l 0.3,1.5 1.53,0.11 c 1.56,0.1 2.78,1.41 2.78,2.96 0,1.65 -1.35,3 -3,3 z M 8,13 h 2.55 v 3 h 2.9 V 13 H 16 L 12,9 Z"
       id="path241" />
  </g>
  <g
     id="expand-less-icon"
     transform="translate(87.73523,0.37089747)">
    <path
       d="M 0,0 H 24 V 24 H 0 Z"
       fill="none"
       id="path333" />
    <path
       d="M 11.29,8.71 6.7,13.3 c -0.39,0.39 -0.39,1.02 0,1.41 0.39,0.39 1.02,0.39 1.41,0 l 3.89,-3.88 3.88,3.88 c 0.39,0.39 1.02,0.39 1.41,0 0.39,-0.39 0.39,-1.02 0,-1.41 L 12.7,8.71 c -0.38,-0.39 -1.02,-0.39 -1.41,0 z"
       id="path335" />
  </g>
  <g
     id="expand-more-icon"
     transform="translate(111.73523,0.37089747)">
    <path
       d="M 24,24 H 0 V 0 h 24 z"
       fill="none"
       opacity="0.87"
       id="path433" />
    <path
       d="M 15.88,9.29 12,13.17 8.12,9.29 C 7.73,8.9 7.1,8.9 6.71,9.29 c -0.39,0.39 -0.39,1.02 0,1.41 l 4.59,4.59 c 0.39,0.39 1.02,0.39 1.41,0 L 17.3,10.7 c 0.39,-0.39 0.39,-1.02 0,-1.41 -0.39,-0.38 -1.03,-0.39 -1.42,0 z"
       id="path435" />
  </g>
  <g
     id="icon-future_attachment"
     transform="translate(29.570021,23.396061)">
    <path
       class="path1"
       d="m 7.813,9.375 h 3.125 V 12.5 H 7.813 Z m 4.687,0 h 3.125 V 12.5 H 12.5 Z m 4.688,0 h 3.125 V 12.5 H 17.188 Z M 3.125,18.75 H 6.25 v 3.125 H 3.125 Z m 4.688,0 h 3.125 v 3.125 H 7.813 Z m 4.687,0 h 3.125 v 3.125 H 12.5 Z M 7.813,14.063 h 3.125 v 3.125 H 7.813 Z m 4.687,0 h 3.125 v 3.125 H 12.5 Z m 4.688,0 h 3.125 v 3.125 h -3.125 z m -14.063,0 H 6.25 v 3.125 H 3.125 Z M 20.313,0 V 1.563 H 17.188 V 0 H 6.25 V 1.563 H 3.125 V 0 H 0 V 25 H 23.438 V 0 Z m 1.562,23.438 H 1.562 V 6.25 h 20.313 z"
       id="path181" />
  </g>
</svg>
